<svg version="1.2" xmlns="http://www.w3.org/2000/svg" xmlns:xlink="http://www.w3.org/1999/xlink" overflow="visible" preserveAspectRatio="none" viewBox="0 0 197 29" height="27" width="195" id="Layer_1_1746040960143"><g transform="translate(1, 1)"><defs><style>.cls-1_1746040960143{fill:#002f6b;}</style></defs><polygon points="34.03 4.47 38.34 4.47 43.12 12.22 47.9 4.47 52.21 4.47 52.21 22.95 48.26 22.95 48.26 10.83 43.14 18.67 43.04 18.67 37.98 10.91 37.98 22.95 34.03 22.95 34.03 4.47" class="cls-1_1746040960143" vector-effect="non-scaling-stroke" style="fill: rgb(255, 255, 255);"/><path transform="translate(0.01 0.01)" d="M60.64,23.27a8.06,8.06,0,0,1-2.89-.52,6.69,6.69,0,0,1-2.31-1.5A6.75,6.75,0,0,1,53.92,19,7.75,7.75,0,0,1,53.38,16v0a8.06,8.06,0,0,1,.5-2.83,7.15,7.15,0,0,1,1.42-2.33,6.71,6.71,0,0,1,2.17-1.58,6.63,6.63,0,0,1,2.79-.57,6.71,6.71,0,0,1,3,.63A6.05,6.05,0,0,1,65.38,11a6.93,6.93,0,0,1,1.25,2.43,10.1,10.1,0,0,1,.4,2.87c0,.15,0,.33,0,.5s0,.35,0,.54H57.3a3.37,3.37,0,0,0,1.18,2.06,3.51,3.51,0,0,0,2.22.7,4.4,4.4,0,0,0,1.77-.34,6.1,6.1,0,0,0,1.6-1.11l2.26,2a7,7,0,0,1-2.39,1.92,7.23,7.23,0,0,1-3.3.7m2.55-8.44a3.77,3.77,0,0,0-.94-2.15,2.56,2.56,0,0,0-2-.83,2.63,2.63,0,0,0-2,.82,4.1,4.1,0,0,0-1,2.17h5.95Z" class="cls-1_1746040960143" vector-effect="non-scaling-stroke" style="fill: rgb(255, 255, 255);"/><path transform="translate(0.01 0.01)" d="M74.17,23.21a6.21,6.21,0,0,1-2.37-.46,6.09,6.09,0,0,1-2-1.41,7.11,7.11,0,0,1-1.41-2.28,8.25,8.25,0,0,1-.53-3.1v-.05a8.34,8.34,0,0,1,.53-3.11,7.26,7.26,0,0,1,1.4-2.27,5.66,5.66,0,0,1,2-1.4,6.1,6.1,0,0,1,2.39-.47,4.9,4.9,0,0,1,2.61.63,6.68,6.68,0,0,1,1.72,1.46V4.47h4V23h-4v-2a6.17,6.17,0,0,1-1.75,1.63,4.71,4.71,0,0,1-2.57.64m1-3.37a3.05,3.05,0,0,0,1.31-.28,3.1,3.1,0,0,0,1.06-.78,3.75,3.75,0,0,0,.73-1.23A4.48,4.48,0,0,0,78.55,16v-.06a4.44,4.44,0,0,0-.27-1.58,4.1,4.1,0,0,0-.73-1.24,3.24,3.24,0,0,0-1.06-.78A3.2,3.2,0,0,0,75.18,12a3.17,3.17,0,0,0-1.31.27,3.32,3.32,0,0,0-1.08.78,4,4,0,0,0-.74,1.22,4.47,4.47,0,0,0-.27,1.6V16a4.44,4.44,0,0,0,.27,1.58,3.77,3.77,0,0,0,.74,1.23,3.18,3.18,0,0,0,1.08.78,3,3,0,0,0,1.31.28" class="cls-1_1746040960143" vector-effect="non-scaling-stroke" style="fill: rgb(255, 255, 255);"/><path transform="translate(0.01 0.01)" d="M84.44,4.47h7.43a8.76,8.76,0,0,1,2.91.45A6.28,6.28,0,0,1,97,6.22a5.62,5.62,0,0,1,1.37,2,6.74,6.74,0,0,1,.48,2.58v0a6.31,6.31,0,0,1-.58,2.8,5.58,5.58,0,0,1-1.57,2,6.55,6.55,0,0,1-2.33,1.21,9.91,9.91,0,0,1-2.87.41h-3v5.64h-4V4.47Zm7.17,9.24a3.23,3.23,0,0,0,2.33-.8,2.6,2.6,0,0,0,.83-2v-.06a2.53,2.53,0,0,0-.86-2.07,3.69,3.69,0,0,0-2.38-.7H88.44v5.6Z" class="cls-1_1746040960143" vector-effect="non-scaling-stroke" style="fill: rgb(255, 255, 255);"/><path transform="translate(0.01 0.01)" d="M99.94,8.92h4v2.83a5.92,5.92,0,0,1,1.63-2.31,4,4,0,0,1,2.81-.78v4.16h-.21A4,4,0,0,0,105,14a5.3,5.3,0,0,0-1.13,3.74V23h-4v-14Z" class="cls-1_1746040960143" vector-effect="non-scaling-stroke" style="fill: rgb(255, 255, 255);"/><path transform="translate(0.01 0.01)" d="M115.65,23.11a7.73,7.73,0,0,1-3-.57A7.14,7.14,0,0,1,110.29,21a7.18,7.18,0,0,1-2.14-5.15v0a7.13,7.13,0,0,1,2.15-5.15,7.35,7.35,0,0,1,2.39-1.57,7.81,7.81,0,0,1,3-.58,7.72,7.72,0,0,1,3,.57,7.13,7.13,0,0,1,4.52,6.68v.05a7.27,7.27,0,0,1-.57,2.84,7.28,7.28,0,0,1-4,3.89,7.74,7.74,0,0,1-3,.58m0-3.43a3.81,3.81,0,0,0,1.52-.3,3.35,3.35,0,0,0,1.13-.83,3.75,3.75,0,0,0,.71-1.21,4.56,4.56,0,0,0,.24-1.49v0a4,4,0,0,0-.26-1.48,3.6,3.6,0,0,0-.75-1.23,3.7,3.7,0,0,0-1.17-.86,3.84,3.84,0,0,0-3,0,3.22,3.22,0,0,0-1.12.83,3.67,3.67,0,0,0-.72,1.21,4.56,4.56,0,0,0-.24,1.49v0a4.1,4.1,0,0,0,.26,1.49,3.7,3.7,0,0,0,.75,1.23,3.86,3.86,0,0,0,1.15.85,3.47,3.47,0,0,0,1.5.32" class="cls-1_1746040960143" vector-effect="non-scaling-stroke" style="fill: rgb(255, 255, 255);"/><path transform="translate(0.01 0.01)" d="M135.63,23.18a9.54,9.54,0,0,1-3.8-.72,8.43,8.43,0,0,1-2.86-2,8.64,8.64,0,0,1-1.82-3,10.24,10.24,0,0,1-.63-3.62v-.05a9.83,9.83,0,0,1,.65-3.54,9.54,9.54,0,0,1,1.83-3,8.59,8.59,0,0,1,6.49-2.81,11.77,11.77,0,0,1,2,.16,8.2,8.2,0,0,1,1.74.46,7.54,7.54,0,0,1,1.5.76,11.86,11.86,0,0,1,1.37,1l-1.3,1.55a7.83,7.83,0,0,0-1.08-.84A7.33,7.33,0,0,0,138.56,7a7.47,7.47,0,0,0-1.43-.42,9.17,9.17,0,0,0-1.73-.16,6.34,6.34,0,0,0-2.73.59,6.72,6.72,0,0,0-2.15,1.6,7.53,7.53,0,0,0-1.4,2.36,7.79,7.79,0,0,0-.52,2.85v0a8.68,8.68,0,0,0,.5,3,6.91,6.91,0,0,0,1.42,2.37,6.34,6.34,0,0,0,2.22,1.58,7.36,7.36,0,0,0,2.93.57,7.89,7.89,0,0,0,2.89-.53,8.32,8.32,0,0,0,2.27-1.28V15.07h-5.44V13.24h7.39v7.19a11.83,11.83,0,0,1-3.08,1.94A9.79,9.79,0,0,1,135.63,23.18Z" class="cls-1_1746040960143" vector-effect="non-scaling-stroke" style="fill: rgb(255, 255, 255);"/><path transform="translate(0.01 0.01)" d="M144.77,9.55h2V13a7,7,0,0,1,.9-1.52,6,6,0,0,1,1.22-1.2,5.23,5.23,0,0,1,1.51-.76,5.28,5.28,0,0,1,1.76-.23v2.14H152a5.55,5.55,0,0,0-2,.38A4.62,4.62,0,0,0,148.27,13a5.5,5.5,0,0,0-1.12,1.92,7.72,7.72,0,0,0-.41,2.65V23h-2V9.55Z" class="cls-1_1746040960143" vector-effect="non-scaling-stroke" style="fill: rgb(255, 255, 255);"/><path transform="translate(0.01 0.01)" d="M159.57,23.18a6.63,6.63,0,0,1-2.73-.55,7.09,7.09,0,0,1-2.18-1.49A6.86,6.86,0,0,1,153.23,19a7,7,0,0,1-.51-2.67v-.06a7.14,7.14,0,0,1,.51-2.68,7,7,0,0,1,1.43-2.21,7,7,0,0,1,7.71-1.51,7,7,0,0,1,2.18,1.49A6.86,6.86,0,0,1,166,13.5a7,7,0,0,1,.51,2.67v0A6.88,6.88,0,0,1,166,18.9a7.08,7.08,0,0,1-1.44,2.22,6.84,6.84,0,0,1-2.2,1.51A7.08,7.08,0,0,1,159.57,23.18Zm0-1.78a4.54,4.54,0,0,0,2-.41,4.76,4.76,0,0,0,1.54-1.1,5.27,5.27,0,0,0,1-1.63,5.36,5.36,0,0,0,.36-2v-.06a5.41,5.41,0,0,0-.37-2,5,5,0,0,0-1-1.65,4.85,4.85,0,0,0-1.56-1.12,4.87,4.87,0,0,0-3.91,0,4.56,4.56,0,0,0-1.52,1.11,5.05,5.05,0,0,0-1,1.63,5.58,5.58,0,0,0-.35,2v0a5.46,5.46,0,0,0,.37,2,5.28,5.28,0,0,0,1,1.64,4.91,4.91,0,0,0,1.55,1.1A4.46,4.46,0,0,0,159.61,21.4Z" class="cls-1_1746040960143" vector-effect="non-scaling-stroke" style="fill: rgb(255, 255, 255);"/><path transform="translate(0.01 0.01)" d="M173.23,23.16a5.52,5.52,0,0,1-2.14-.39,4.45,4.45,0,0,1-1.59-1.1,4.85,4.85,0,0,1-1-1.68,6.54,6.54,0,0,1-.35-2.17V9.55h2v7.76a4.31,4.31,0,0,0,1,2.94,3.43,3.43,0,0,0,2.71,1.07,4.06,4.06,0,0,0,1.57-.29,3.51,3.51,0,0,0,1.25-.85,4,4,0,0,0,.83-1.33,4.58,4.58,0,0,0,.31-1.69V9.55h1.94V23h-1.94V20.55A6.18,6.18,0,0,1,176,22.39,4.72,4.72,0,0,1,173.23,23.16Z" class="cls-1_1746040960143" vector-effect="non-scaling-stroke" style="fill: rgb(255, 255, 255);"/><path transform="translate(0.01 0.01)" d="M181.66,9.55h2v2.68a9.69,9.69,0,0,1,.9-1.13,5.59,5.59,0,0,1,1.12-.94,5.29,5.29,0,0,1,3-.89,6.06,6.06,0,0,1,2.31.46,6.18,6.18,0,0,1,2,1.35,6.7,6.7,0,0,1,1.44,2.16,7.66,7.66,0,0,1,.53,2.93v0a7.62,7.62,0,0,1-.53,2.91A6.69,6.69,0,0,1,193,21.31a6.29,6.29,0,0,1-2,1.37,6.11,6.11,0,0,1-2.33.48,5.61,5.61,0,0,1-1.69-.24,5.46,5.46,0,0,1-2.49-1.52,7.43,7.43,0,0,1-.88-1.08V27h-2Zm6.67,11.83a4.77,4.77,0,0,0,1.8-.35,4.2,4.2,0,0,0,1.48-1,4.81,4.81,0,0,0,1-1.61,5.82,5.82,0,0,0,.37-2.16V16.2a5.79,5.79,0,0,0-.37-2.14,4.69,4.69,0,0,0-1-1.62,4.34,4.34,0,0,0-1.48-1,4.51,4.51,0,0,0-1.79-.36,4.36,4.36,0,0,0-1.77.37A5,5,0,0,0,185,12.48a5.14,5.14,0,0,0-1.07,1.62,5.21,5.21,0,0,0-.4,2.08v.05a5.51,5.51,0,0,0,.4,2.11A4.86,4.86,0,0,0,185,20a5.17,5.17,0,0,0,1.54,1A4.54,4.54,0,0,0,188.33,21.38Z" class="cls-1_1746040960143" vector-effect="non-scaling-stroke" style="fill: rgb(255, 255, 255);"/><polygon points="16.48 0 16.48 7.47 0 7.47 0 0 16.48 0 16.48 0" class="cls-1_1746040960143" vector-effect="non-scaling-stroke" style="fill: rgb(255, 255, 255);"/><polygon points="9.57 9.66 16.48 9.66 16.48 16.62 9.57 16.62 9.57 9.66 9.57 9.66" class="cls-1_1746040960143" vector-effect="non-scaling-stroke" style="fill: rgb(255, 255, 255);"/><polygon points="18.65 0 26.05 0 26.05 16.62 18.65 16.62 18.65 0 18.65 0" class="cls-1_1746040960143" vector-effect="non-scaling-stroke" style="fill: rgb(255, 255, 255);"/><polygon points="0 9.66 7.4 9.66 7.4 26.28 0 26.28 0 9.66 0 9.66" class="cls-1_1746040960143" vector-effect="non-scaling-stroke" style="fill: rgb(255, 255, 255);"/><polygon points="9.57 26.28 9.57 18.82 26.05 18.82 26.05 26.28 9.57 26.28 9.57 26.28" class="cls-1_1746040960143" vector-effect="non-scaling-stroke" style="fill: rgb(255, 255, 255);"/></g></svg>